<?xml version="1.0" standalone="no"?>
<!DOCTYPE svg PUBLIC "-//W3C//DTD SVG 20010904//EN"
 "http://www.w3.org/TR/2001/REC-SVG-20010904/DTD/svg10.dtd">
<svg version="1.0" xmlns="http://www.w3.org/2000/svg"
 width="2000.000000pt" height="344.000000pt" viewBox="0 0 2000.000000 344.000000"
 preserveAspectRatio="xMidYMid meet">

<g transform="translate(0.000000,344.000000) scale(0.100000,-0.100000)"
fill="#000000" stroke="none">
<path d="M6715 3413 c-204 -73 -294 -222 -342 -568 -23 -165 -23 -650 1 -1125
32 -629 14 -860 -78 -1045 -108 -214 -304 -345 -519 -345 -146 0 -254 46 -345
145 -124 135 -160 300 -132 599 26 274 105 488 214 584 76 66 145 71 207 15
22 -20 49 -53 59 -73 23 -45 50 -147 50 -189 0 -31 1 -31 50 -31 62 0 179 27
200 47 12 11 15 42 15 156 0 140 0 143 -32 208 -59 120 -179 201 -329 222
-310 45 -616 -203 -764 -618 -56 -159 -70 -241 -80 -483 -11 -241 -27 -344
-67 -435 -43 -97 -131 -156 -211 -144 -47 8 -78 39 -99 101 -20 56 -22 177
-13 866 4 284 2 353 -13 453 -27 177 -7 159 -196 183 l-161 20 0 -477 c0 -494
-7 -625 -40 -756 -42 -164 -139 -312 -238 -362 -101 -52 -200 -11 -221 90 -7
33 -11 314 -11 839 l0 790 444 0 c289 0 455 4 473 11 100 37 154 190 98 275
l-17 26 -441 -8 c-243 -5 -466 -8 -496 -9 l-53 0 -2 410 c-1 459 -4 479 -70
547 -48 49 -111 69 -239 75 l-107 6 9 -24 c26 -71 36 -226 35 -611 0 -219 -3
-400 -7 -404 -3 -3 -57 -1 -119 6 -179 20 -249 21 -313 8 l-60 -13 3 -55 c6
-128 62 -208 161 -229 29 -6 114 -11 190 -11 l139 0 7 -166 c11 -244 -1 -835
-19 -979 -39 -307 -104 -486 -203 -561 -61 -47 -116 -53 -209 -24 -40 13 -75
29 -78 35 -2 7 -12 61 -21 121 -38 241 -5 514 106 880 57 188 77 272 80 331 3
37 -3 49 -54 111 -45 57 -70 77 -124 104 l-67 33 -231 -3 -230 -3 -47 79 c-60
100 -120 156 -189 176 -188 56 -322 -41 -323 -234 0 -116 42 -179 141 -214
l38 -13 -1 -259 c0 -290 -12 -394 -70 -657 -56 -252 -111 -392 -181 -459 -33
-31 -93 -47 -178 -48 l-61 0 -23 78 c-13 42 -30 100 -38 127 -26 93 -32 241
-21 515 13 312 8 358 -49 421 -24 27 -51 44 -86 54 -69 20 -166 20 -196 -1
-26 -19 -26 15 -1 -334 24 -326 2 -577 -62 -709 -85 -176 -316 -201 -416 -44
-54 85 -67 149 -66 323 1 139 4 167 32 273 35 133 108 297 176 392 94 131 238
237 359 265 27 6 112 13 188 15 154 5 191 16 234 67 38 46 34 89 -15 142 -116
126 -365 139 -618 34 -154 -64 -353 -222 -462 -366 -309 -410 -348 -1126 -77
-1418 177 -191 423 -187 758 12 l46 28 59 -60 c84 -86 153 -117 269 -122 163
-7 277 34 391 141 220 205 367 635 429 1257 9 91 19 175 21 188 4 22 5 22 209
22 113 0 205 -4 205 -9 0 -5 -12 -35 -26 -67 -129 -289 -217 -659 -217 -919 0
-225 41 -362 145 -471 97 -103 200 -146 353 -148 123 -1 165 15 306 120 96 72
135 96 175 108 17 5 22 0 33 -43 15 -61 46 -90 139 -134 200 -96 367 -66 579
104 l98 79 30 -38 c84 -107 186 -173 295 -192 83 -14 183 5 273 52 77 41 186
147 216 211 21 44 26 48 50 42 39 -10 86 -42 165 -112 85 -75 166 -119 301
-164 95 -31 108 -33 250 -33 114 -1 165 4 215 17 100 28 234 97 350 181 57 42
108 76 112 76 4 0 50 -40 100 -88 104 -98 159 -135 251 -164 88 -29 229 -28
317 2 126 43 265 146 355 263 28 36 54 66 59 66 12 1 81 -55 174 -141 90 -85
137 -113 257 -152 209 -69 414 -74 585 -17 128 43 237 110 336 206 171 167
284 400 284 584 -1 143 -86 222 -192 178 -53 -22 -83 -75 -138 -241 -27 -81
-59 -163 -71 -184 -36 -59 -129 -152 -193 -194 -238 -154 -570 -78 -685 157
l-28 60 136 70 c75 39 165 93 199 120 216 169 362 468 362 741 0 217 -97 375
-270 440 -65 25 -227 25 -300 0 -295 -100 -492 -377 -560 -786 -6 -36 -15
-148 -20 -250 -10 -209 -29 -302 -85 -416 -45 -93 -103 -157 -171 -190 -49
-24 -63 -26 -124 -21 -116 10 -188 55 -226 142 -14 32 -19 77 -22 225 l-4 185
30 80 c16 44 66 172 110 285 232 596 336 1014 349 1405 8 244 -17 414 -81 560
-31 69 -106 150 -171 183 -67 34 -195 41 -270 15z m152 -301 c18 -11 39 -78
53 -166 18 -109 7 -486 -19 -693 -37 -283 -84 -488 -130 -557 l-19 -28 -8 198
c-5 110 -9 384 -9 609 0 336 3 426 17 500 23 130 31 145 70 145 18 0 38 -4 45
-8z m1232 -1427 c16 -14 35 -42 43 -63 17 -51 15 -194 -5 -272 -44 -169 -166
-338 -289 -400 -101 -50 -102 -48 -95 73 9 140 40 315 77 430 66 206 181 305
269 232z"/>
<path d="M4240 3013 c-105 -55 -160 -203 -127 -339 27 -110 75 -166 166 -199
192 -67 386 80 385 290 -1 154 -113 258 -290 271 -74 6 -83 4 -134 -23z"/>
<path d="M10545 2144 c-398 -59 -644 -322 -621 -664 9 -139 48 -230 137 -319
87 -88 176 -130 444 -211 247 -74 297 -95 354 -146 59 -53 75 -94 69 -175 -8
-108 -94 -179 -218 -179 -85 0 -133 14 -176 52 -42 37 -60 71 -75 138 l-11 50
-265 0 -266 0 7 -62 c32 -288 192 -460 506 -545 51 -14 106 -18 255 -18 169 0
199 3 269 23 168 49 326 159 407 286 143 221 123 509 -47 678 -91 90 -186 132
-504 224 -253 73 -336 126 -358 230 -13 60 -1 134 29 175 42 60 154 92 239 69
77 -21 160 -126 160 -204 0 -14 27 -16 270 -16 l270 0 0 43 c0 23 -7 74 -15
112 -60 286 -306 450 -690 460 -77 2 -153 1 -170 -1z"/>
<path d="M11843 1433 c3 -667 4 -691 25 -770 76 -288 262 -482 547 -569 84
-26 103 -28 270 -28 208 -1 273 12 430 89 158 76 283 202 360 360 78 161 84
240 85 998 l0 607 -250 0 -249 0 -3 -667 -3 -668 -24 -59 c-30 -75 -96 -147
-164 -177 -45 -21 -67 -24 -172 -24 -111 0 -124 2 -177 28 -69 34 -120 90
-150 166 -23 56 -23 57 -26 729 l-3 672 -250 0 -250 0 4 -687z"/>
<path d="M13980 1100 l0 -1020 250 0 250 0 2 571 3 571 235 -571 234 -571 187
0 186 0 236 572 236 573 1 -572 0 -573 250 0 250 0 0 1020 0 1020 -286 -2
-287 -3 -91 -220 c-51 -121 -181 -435 -290 -697 -109 -263 -201 -476 -205
-473 -4 2 -137 317 -297 699 l-289 695 -287 1 -288 0 0 -1020z"/>
<path d="M16670 1930 l0 -190 430 0 c237 0 430 -2 430 -4 0 -3 -193 -290 -430
-640 l-430 -635 0 -191 0 -190 720 0 720 0 0 185 0 185 -435 2 -436 3 436 644
435 644 0 189 0 188 -720 0 -720 0 0 -190z"/>
</g>
</svg>
